<svg id="Layer_1" data-name="Layer 1" xmlns="http://www.w3.org/2000/svg" viewBox="0 0 1080 1080"><defs><style>.cls-1{fill:#8ba1b7;}.cls-2{fill:#6b839b;}</style></defs><title>IconDashboard</title><path class="cls-1" d="M83.29,617.45c1.78-6.5,3.37-13.05,5.38-19.49,14.58-46.78,56.73-80.6,105.41-83.84,28.11-1.86,56.35-2.88,84.08,3.81a100.37,100.37,0,0,1,42.2,21.59c-14.12,20.14-29,39-41.27,59.41-20.44,34.18-30.31,72.29-31.79,111.71-2,54.5-1.45,109.11-2,163.68,0,1.45,0,2.89,0,5.32-4,.4-7.66,1.09-11.35,1.1q-47.18.1-94.36,0c-28.15-.11-46-13.35-54.87-40.25a10.72,10.72,0,0,0-1.44-2.21Z"/><path class="cls-1" d="M528.94,937.67c-55.18,0-110.35.18-165.53-.07-29.64-.14-53-16.87-61.62-43.48a52,52,0,0,1-2.85-14.73c-.76-40.93-1.84-81.86-1.61-122.79.21-38.33,3.16-76.68,18.51-112.38C345.55,575.15,399.05,534.33,471.61,518c35.62-8,71.81-5.59,108-4.22C622,515.38,659,529.7,691.8,555.27c56.88,44.41,87.38,102.53,87.63,175.43.15,46.28.29,92.56,0,138.83-.29,43.73-20.64,65.12-64.59,66.39-61.93,1.8-123.9,2.42-185.85,3.55C529,938.87,528.94,938.27,528.94,937.67Z"/><path class="cls-1" d="M538.89,143.09C624.2,142.92,693.83,212,694,297c.16,86.4-68.93,156.21-154.68,156.31-85,.09-154.94-69.41-155.06-154.15C384.11,212.47,452.7,143.26,538.89,143.09Z"/><path class="cls-2" d="M127.84,354.77a97.77,97.77,0,0,1,98-97.7c54.58.09,98,43.91,97.81,98.74-.18,53.78-44.72,97.9-98.4,97.48A98.26,98.26,0,0,1,127.84,354.77Z"/><path class="cls-1" d="M995.87,617.45c-1.79-6.5-3.38-13.05-5.39-19.49-14.58-46.78-56.73-80.6-105.41-83.84-28.11-1.86-56.35-2.88-84.08,3.81a100.37,100.37,0,0,0-42.2,21.59c14.12,20.14,29.05,39,41.27,59.41,20.44,34.18,30.31,72.29,31.79,111.71,2,54.5,1.45,109.11,2,163.68,0,1.45,0,2.89,0,5.32,4,.4,7.66,1.09,11.35,1.1q47.19.1,94.36,0c28.15-.11,46-13.35,54.87-40.25a10.78,10.78,0,0,1,1.45-2.21Z"/><path class="cls-2" d="M951.31,354.77a97.77,97.77,0,0,0-98-97.7c-54.58.09-98,43.91-97.81,98.74.18,53.78,44.72,97.9,98.41,97.48A98.26,98.26,0,0,0,951.31,354.77Z"/></svg>