<svg id="Layer_1" data-name="Layer 1" xmlns="http://www.w3.org/2000/svg" viewBox="0 0 1080 1080"><defs><style>.cls-1{fill:#8ba1b7;}.cls-2{fill:#6b839b;}</style></defs><title>IconDashboard</title><path class="cls-1" d="M539.1,381.21c109.9,0,219.79.18,329.68-.1,33.28-.09,59.21,12.25,75.78,41.65,10.62,18.86,11.24,38.9,6.69,59.87-23.51,108.27-46.15,216.73-70,324.93-16.7,75.77-77.78,125.11-155.5,125.48q-186.54.9-373.09,0c-78.89-.37-140.32-51.71-156.76-128.9Q161.41,642.06,126.66,480c-11-51.13,21.55-95,73.54-98.49,4.29-.29,8.61-.31,12.92-.31Q376.11,381.2,539.1,381.21Zm0,234.61c-20.85-21-40.75-41.08-60.8-61.05-13.4-13.34-31.4-14-43.48-1.83s-11.33,30,2,43.47c18,18.14,36.13,36.14,54.17,54.23,2.1,2.1,4,4.37,6.3,6.87-20.54,20.53-40.6,40.5-60.55,60.56-13.29,13.37-14,31.38-1.89,43.47s30,11.4,43.49-1.94c17.94-17.77,35.72-35.68,53.6-53.51,2.32-2.31,4.77-4.49,7.44-7C560,719.65,580,739.69,600,759.62c13.43,13.33,31.34,14,43.47,1.88s11.44-30-1.94-43.48c-18-18.15-36.11-36.15-54.16-54.24-2.09-2.1-4-4.37-6.52-7.11,20.82-20.68,41.13-40.82,61.42-61,8.53-8.48,12-18.55,8.52-30.28-6.55-21.94-32.69-28.27-49.51-11.8C580.68,573.82,560.42,594.44,539.07,615.82Z"/><path class="cls-2" d="M221.92,322.12c1.7-29.41.49-58.09,5.58-85.6,9.45-51,54.07-88.58,105.93-90.87,38.69-1.7,77.52-.76,116.28-.3,24.78.28,46.72,9.52,66.32,24.4,13,9.86,25.72,20,38.73,29.85,21.32,16.09,45.41,23.89,72.14,23.82,36.32-.11,72.63-.33,108.94.06,54.34.58,99.33,34.89,114.25,86.56,1.09,3.78,1.79,7.66,2.81,12.08Z"/></svg>