<svg id="Layer_1" data-name="Layer 1" xmlns="http://www.w3.org/2000/svg" viewBox="0 0 1080 1080"><defs><style>.cls-1{fill:#6b839b;}.cls-2{fill:#8ba1b7;}</style></defs><title>IconDashboard</title><path class="cls-1" d="M522.26,146.29C633,146,724,236.58,724.44,347.5c.44,111.38-90,202.1-201.64,202.26-111.07.16-201.58-89.53-201.83-200C320.71,237.26,410.4,146.6,522.26,146.29Z"/><path class="cls-2" d="M572.57,898.43h-6.83q-176.5,0-353,0c-32.8,0-56.43-17.67-64.13-47.42a13.89,13.89,0,0,1-.87-3.3c.09-27.73-1.95-55.7.93-83.14,3.44-32.8,22.11-59,45.6-81.44,35.28-33.72,78-54.52,123.62-70,81-27.5,164.61-35,249.58-30.61,2.82.15,5.62.7,8,1C493.1,687.63,492,792,572.57,898.43Z"/><path class="cls-2" d="M742.23,935c-106.4-.27-192.74-86.82-192.51-193,.22-106,87.32-192.58,193.36-192.31,105.77.27,192,86.9,191.88,192.72C934.82,849,848.5,935.26,742.23,935ZM721.41,753.5c-13.81-9.13-25.76-17.51-38.17-25.12A27.19,27.19,0,0,0,653.72,774q27.21,18.72,55,36.66c11.77,7.63,24,7.12,33.9-2.56q46.93-46,93-92.88c11.12-11.35,10-28-1.17-38.45-11-10.36-27.06-10-38.51,1.24q-28.46,28-56.52,56.46C733.33,740.57,727.6,746.93,721.41,753.5Z"/></svg>