<svg id="Layer_1" data-name="Layer 1" xmlns="http://www.w3.org/2000/svg" viewBox="0 0 1080 1080"><defs><style>.cls-1{fill:#6b839b;}.cls-2{fill:#8ba1b7;}</style></defs><title>IconDashboard</title><path class="cls-1" d="M800.78,342.48c-28.67,12.69-55.23,25.55-82.66,36.13-14.35,5.53-18.62,13.12-18.21,28.23.74,27,1,54.33-2.76,80.93-9.7,67.85-70.7,122.73-138.8,131-80.77,9.77-165.83-45-178.64-137.49-3.72-26.92-1.92-54.66-1.73-82,.06-9.12-2.35-13.64-11.12-17.42-48.45-20.89-96.5-42.7-144.78-64-9.38-4.13-16.31-9.81-16.19-20.8.1-10.53,6.79-16.08,15.83-20.09Q354.81,218,487.79,158.8q51.13-22.73,102.26-.13,133,59,265.93,118.1c18.76,8.35,21.23,20.86,8.15,37.07-2,2.49-2.29,6.88-2.3,10.4-.13,63.89,0,127.78-.13,191.67,0,22-16.15,36.18-36.5,32.6-11.83-2.08-21.77-12-23.62-23.9a87.71,87.71,0,0,1-.77-13.17q-.06-78.36,0-156.73Z"/><path class="cls-2" d="M539.05,942.12q-118.45,0-236.91,0c-42-.07-74-23.65-83.16-61.51-6.07-25.09-1.23-49.4,8-72.83,18.45-46.93,52.83-80.17,95.56-104.38,25-14.13,52.25-24.23,78.77-35.49,19.06-8.11,35.21-2.84,49.35,12,18.63,19.61,38,38.57,57,57.74,20,20.07,42.84,20.06,62.76,0,19.07-19.19,38.35-38.18,57-57.74,13.81-14.47,29-18.94,48.52-12.53,56.18,18.5,107.09,45.13,145.86,91.2,22.64,26.91,36.15,57.73,39.56,93,4.48,46.43-28.77,86.63-75.11,90-5,.37-10.06.49-15.08.49Q655.14,942.15,539.05,942.12Z"/></svg>