<svg id="Layer_1" data-name="Layer 1" xmlns="http://www.w3.org/2000/svg" viewBox="0 0 1080 1080"><defs><style>.cls-1{fill:#8ba1b7;}.cls-2{fill:#6b839b;}</style></defs><title>IconDashboard</title><path class="cls-1" d="M940.43,799.93c-10.23,18.06-20.29,36.23-30.76,54.15-7.94,13.59-19.88,17.34-34.65,11.34-10.34-4.21-20.63-8.53-30.79-13.14-3.92-1.79-6.63-1.6-10.48.88-10.64,6.9-21.63,13.34-32.91,19.15-4.3,2.22-6.2,4.72-6.67,9.22-1.11,10.59-2.59,21.14-3.67,31.74-1.66,16.12-11.64,25.49-27.7,25.55q-26.53.1-53.08,0c-15.25-.07-25-8.66-26.88-23.62-1.5-11.6-2.73-23.23-4.64-34.76a11.89,11.89,0,0,0-5-7.2Q656,862.61,638.24,852.91c-2.25-1.25-5.85-1.81-8.14-.93-10.89,4.2-21.49,9.15-32.29,13.57-14.72,6-26.64,2.15-34.67-11.41q-13.51-22.78-26.49-45.9c-7.62-13.58-4.93-26.09,7.55-35.81,8.82-6.87,18.06-13.21,26.67-20.32a13.17,13.17,0,0,0,4.21-8.73q.67-19.82,0-39.66a13.18,13.18,0,0,0-4.15-8.75c-8.81-7.28-18.27-13.77-27.26-20.84-12-9.41-14.51-22-7.06-35.29q13-23.1,26.48-45.91c8-13.45,20-17.37,34.72-11.39,10.81,4.41,21.41,9.32,32.31,13.5,2.29.87,5.87.27,8.13-1,11.57-6.38,22.77-13.43,34.4-19.7,3.52-1.91,5.51-3.42,5.9-7.81,1-11.63,2.79-23.2,4.29-34.79,1.9-14.73,11.92-23.58,27-23.66q26.53-.14,53.07,0c16.07.07,25.92,9.43,27.61,25.66,1.16,11.11,2.38,22.23,4.25,33.22.45,2.63,3.14,5.54,5.58,7,11,6.8,22.54,12.82,33.43,19.82,3.83,2.46,6.56,2.69,10.48.91,10.16-4.61,20.45-9,30.77-13.19,14.69-6,26.74-2.31,34.67,11.25,10.47,17.9,20.51,36.06,30.74,54.12v12.49c-5.53,6.29-10.54,13.17-16.72,18.73-7.1,6.4-15.39,11.47-22.84,17.52a10,10,0,0,0-3.27,6.8c-.08,10.36,1.93,21,.32,31-1.93,12.09,2.5,18.59,12,25.1,11.51,7.92,24.63,14.74,30.53,28.84ZM797,723.71c.07-33.77-27.16-61.21-60.67-61.16-33.1.06-60.31,27.28-60.58,60.6s27.45,61.25,60.79,61.17A60.9,60.9,0,0,0,797,723.71Z"/><path class="cls-2" d="M458,139.57c8.5,2,17.08,3.69,25.48,6A163.93,163.93,0,0,1,602.91,317.18c-6.52,77.64-67.28,140-145,148.82-87.44,9.91-166.48-50.28-180.61-137.53C262.85,239,327.39,152.42,417,141.08a33.65,33.65,0,0,0,5.16-1.51Z"/><path class="cls-1" d="M563.61,538.83c-21.81,7.84-34.08,23.09-43.7,41.3-6.43,12.16-13.79,23.83-20.59,35.81-19.27,33.91-11.59,70.54,19.64,94,2.9,2.19,5.95,4.21,8.74,6.54a9,9,0,0,1-.17,14c-3.83,3.11-7.95,5.87-11.8,9-27.92,22.38-34.94,58.18-17.39,89.55q13.32,23.81,27.2,47.29c19.05,32.1,54.47,43.67,89,29.29,3.6-1.5,7.13-3.14,10.75-4.57,6-2.33,11.45.6,12.54,6.89,1.72,9.94,3.16,19.93,4.83,30.6-2.09.09-4.77.31-7.46.31q-224.37,0-448.75,0c-27.87,0-45.25-17.34-45.26-45.15,0-29.91-.71-59.85.16-89.74C144,711.52,181.67,635.86,253,577.34c45.39-37.23,98-58.21,156.31-64.1C462.27,507.89,513.37,516,563.61,538.83Z"/></svg>