<svg id="Layer_1" data-name="Layer 1" xmlns="http://www.w3.org/2000/svg" viewBox="0 0 1080 1080"><defs><style>.cls-1{fill:#6b839b;}.cls-2{fill:#8ba1b7;}</style></defs><title>IconDashboard</title><path class="cls-1" d="M218.14,1046.79a1.5,1.5,0,0,0,0-3,1.5,1.5,0,0,0,0,3Z"/><path d="M869.17,295.37q0,62.58,0,125.16-27.39-25.15-54.74-50.32c-13.19-12.15-21.59-12.22-34.69-.23-21.14,19.34-42.37,38.57-63.42,58-7.18,6.63-14.82,10.37-24.48,6s-12.21-12.5-12.21-22.22q0-96.57,0-193.13,57,0,113.93.16C838.75,218.86,869.17,250.41,869.17,295.37Z"/><path class="cls-2" d="M869.18,484.71v271a49.11,49.11,0,0,1-49.11,49.11H328.42c-3.15,0-6.3-.08-9.44.11-29.7,1.81-45.07,28.39-32,55.3,4.94,10.17,13.65,15.17,24.39,16.71a126.72,126.72,0,0,0,18,1q169.11,0,338.19,0H832a36.78,36.78,0,0,1,36.77,36.75v0a36.79,36.79,0,0,1-36.61,36.77H666.49q-170.26,0-340.52,0c-36.08,0-67.6-10.77-91.85-38.38C217,893.65,209.83,870.11,209.8,844.4q-.13-134.34,0-268.67c0-81.25,1-162.52-.28-243.76-1.17-75.18,55.34-113.3,111.93-113.31q152.63,0,305.26-.08c0,33.82,0,67.74,0,100.81q0,46.17,0,92.32c0,45.81,30.22,64.55,43.23,70.47A72.17,72.17,0,0,0,700,488.86c18.91,0,36.5-7.38,52.26-21.93,13.71-12.66,27.79-25.49,41.4-37.9l3.22-2.94q14.64,13.47,29.3,26.92l17,15.65A77.46,77.46,0,0,0,869.18,484.71Z"/><path class="cls-1" d="M869.17,295.37q0,62.58,0,125.16-27.39-25.15-54.74-50.32c-13.19-12.15-21.59-12.22-34.69-.23-21.14,19.34-42.37,38.57-63.42,58-7.18,6.63-14.82,10.37-24.48,6s-12.21-12.5-12.21-22.22q0-96.57,0-193.13,57,0,113.93.16C838.75,218.86,869.17,250.41,869.17,295.37Z"/><path class="cls-1" d="M914.26,298.7q0,54.66,0,109.3c0,2.49.12,5-.08,7.47-.71,8.69-4.26,15.49-12.81,18.94s-15.79,1.19-22.28-4.77q-32.34-29.72-64.66-59.43c-13.19-12.15-21.59-12.22-34.69-.23-21.14,19.34-42.37,38.57-63.42,58-7.18,6.63-14.82,10.37-24.48,6s-12.21-12.5-12.21-22.22q.06-113.5.07-227c0-16.67,7.32-24.22,23.82-24.26q93.43-.21,186.87,0c16.48,0,23.78,7.62,23.83,24.26C914.34,222.72,914.26,260.71,914.26,298.7Z"/></svg>